<svg width="15" height="15" viewBox="0 0 15 15" fill="none" xmlns="http://www.w3.org/2000/svg">
<path fill-rule="evenodd" clip-rule="evenodd" d="M14.7304 12.9955C14.2674 14.4024 12.4534 15.1044 11.1574 14.9874C9.38737 14.8274 7.46136 13.8885 5.99934 12.8545C3.85033 11.3346 1.83731 8.98364 0.664302 6.48873C-0.164705 4.72579 -0.350706 2.55787 0.882304 0.950924C1.33831 0.356945 1.83231 0.0399564 2.57232 0.00295769C3.60033 -0.0470405 3.74433 0.540939 4.09733 1.45691C4.36033 2.14188 4.71133 2.84086 4.90734 3.55083C5.27434 4.87578 3.99133 4.93078 3.82933 6.01374C3.72933 6.69672 4.55633 7.61269 4.93034 8.09967C5.65123 9.04811 6.53416 9.8616 7.53836 10.5026C8.10836 10.8616 9.02637 11.5085 9.67837 11.1516C10.6824 10.6016 10.5884 8.90864 11.9914 9.48162C12.7184 9.77761 13.4224 10.2046 14.1164 10.5786C15.1894 11.1556 15.1394 11.7535 14.7304 12.9955C15.0364 12.0675 14.4244 13.9235 14.7304 12.9955Z" fill="#16122A"/>
</svg>
