<svg width="15" height="12" viewBox="0 0 15 12" fill="none" xmlns="http://www.w3.org/2000/svg">
<path d="M0 1.31358V0.931372C0 0.684357 0.0987721 0.447459 0.274587 0.272793C0.450403 0.0981265 0.68886 0 0.9375 0L14.0625 0C14.3111 0 14.5496 0.0981265 14.7254 0.272793C14.9012 0.447459 15 0.684357 15 0.931372V1.31358L7.5 5.97045L0 1.31358ZM7.74844 6.91463C7.67392 6.96083 7.58784 6.98533 7.5 6.98533C7.41216 6.98533 7.32608 6.96083 7.25156 6.91463L0 2.41191V10.2451C0 10.4921 0.0987721 10.729 0.274587 10.9037C0.450403 11.0783 0.68886 11.1765 0.9375 11.1765H14.0625C14.3111 11.1765 14.5496 11.0783 14.7254 10.9037C14.9012 10.729 15 10.4921 15 10.2451V2.41191L7.74844 6.91463Z" fill="#16122A"/>
</svg>
