<svg width="36" height="36" viewBox="0 0 36 36" fill="none" xmlns="http://www.w3.org/2000/svg">
<path d="M27.2499 6.29956C26.8365 6.29956 26.4325 6.42097 26.0888 6.64845C25.7451 6.87592 25.4772 7.19924 25.319 7.57752C25.1608 7.9558 25.1194 8.37204 25.2001 8.77361C25.2807 9.17519 25.4798 9.54406 25.7721 9.83358C26.0644 10.1231 26.4368 10.3203 26.8422 10.4001C27.2476 10.48 27.6678 10.439 28.0497 10.2823C28.4316 10.1257 28.758 9.86031 28.9877 9.51987C29.2173 9.17943 29.3399 8.77918 29.3399 8.36974C29.3399 7.82069 29.1197 7.29414 28.7278 6.9059C28.3358 6.51767 27.8042 6.29956 27.2499 6.29956Z" fill="#CE8C4F"/>
<path d="M17.9599 8.9541C16.223 8.9541 14.5251 9.46441 13.081 10.4205C11.6369 11.3765 10.5116 12.7353 9.84733 14.325C9.18308 15.9147 9.00978 17.6639 9.34937 19.3512C9.68896 21.0384 10.5262 22.588 11.7551 23.8039C12.984 25.0198 14.5494 25.8473 16.2532 26.1817C17.957 26.5161 19.7227 26.3425 21.3268 25.6828C22.931 25.023 24.3015 23.9068 25.2651 22.4753C26.2287 21.0438 26.7419 19.3614 26.7399 17.6409C26.7346 15.3369 25.8076 13.129 24.1619 11.5007C22.5162 9.87246 20.286 8.95672 17.9599 8.9541ZM17.9599 23.2077C16.8484 23.2077 15.7618 22.8812 14.8376 22.2695C13.9134 21.6578 13.1931 20.7884 12.7677 19.7712C12.3424 18.754 12.2311 17.6348 12.4479 16.5549C12.6648 15.4751 13.2 14.4832 13.986 13.7047C14.772 12.9262 15.7734 12.396 16.8635 12.1812C17.9537 11.9664 19.0837 12.0766 20.1106 12.498C21.1375 12.9193 22.0153 13.6328 22.6328 14.5482C23.2503 15.4637 23.5799 16.54 23.5799 17.6409C23.5799 19.1173 22.9878 20.5332 21.9339 21.5772C20.8799 22.6212 19.4505 23.2077 17.9599 23.2077Z" fill="#CE8C4F"/>
<path d="M24.93 35.2922H10.7C7.86299 35.2895 5.14295 34.1721 3.13689 32.185C1.13082 30.198 0.0026477 27.5037 0 24.6936V10.5985C0.0026477 7.78844 1.13082 5.09418 3.13689 3.10714C5.14295 1.12009 7.86299 0.00262259 10.7 0H24.93C27.767 0.00262259 30.4871 1.12009 32.4931 3.10714C34.4992 5.09418 35.6274 7.78844 35.63 10.5985V24.6936C35.6274 27.5037 34.4992 30.198 32.4931 32.185C30.4871 34.1721 27.767 35.2895 24.93 35.2922ZM10.7 3.31823C8.75239 3.32086 6.88546 4.08905 5.50923 5.45408C4.133 6.81912 3.36 8.6694 3.36 10.5985V24.6936C3.36 26.6228 4.133 28.473 5.50923 29.8381C6.88546 31.2031 8.75239 31.9713 10.7 31.9739H24.93C26.8785 31.9713 28.7465 31.2034 30.1243 29.8387C31.5021 28.4739 32.2774 26.6237 32.28 24.6936V10.5985C32.2774 8.66849 31.5021 6.81824 30.1243 5.45348C28.7465 4.08873 26.8785 3.32086 24.93 3.31823H10.7Z" fill="#CE8C4F"/>
</svg>
