<svg width="15" height="19" viewBox="0 0 15 19" fill="none" xmlns="http://www.w3.org/2000/svg">
<path d="M7.5 0C5.51156 0.00223328 3.6052 0.793147 2.19917 2.19922C0.793127 3.6053 0.00223323 5.51171 0 7.5002C0 10.5518 2.21531 13.086 4.56188 15.7682C5.30438 16.6176 6.07313 17.4961 6.7575 18.3849C6.84508 18.4985 6.95756 18.5905 7.08629 18.6538C7.21501 18.7171 7.35655 18.75 7.5 18.75C7.64345 18.75 7.78499 18.7171 7.91371 18.6538C8.04244 18.5905 8.15492 18.4985 8.2425 18.3849C8.92688 17.4961 9.69563 16.6176 10.4381 15.7682C12.7847 13.086 15 10.5518 15 7.5002C14.9978 5.51171 14.2069 3.6053 12.8008 2.19922C11.3948 0.793147 9.48844 0.00223328 7.5 0ZM7.5 10.3128C6.94374 10.3128 6.39997 10.1478 5.93746 9.83876C5.47495 9.52971 5.11446 9.09045 4.90159 8.57652C4.68872 8.06259 4.63302 7.49708 4.74154 6.95149C4.85006 6.4059 5.11793 5.90475 5.51126 5.51141C5.9046 5.11806 6.40574 4.85019 6.95131 4.74167C7.49688 4.63314 8.06238 4.68884 8.5763 4.90172C9.09021 5.11459 9.52947 5.47509 9.83851 5.93761C10.1475 6.40014 10.3125 6.94392 10.3125 7.5002C10.3125 8.24614 10.0162 8.96153 9.48874 9.48899C8.96129 10.0164 8.24592 10.3128 7.5 10.3128Z" fill="#16122A"/>
</svg>
