<svg width="89" height="55" viewBox="0 0 89 55" fill="none" xmlns="http://www.w3.org/2000/svg">
<path d="M89 40.4777L84.0509 55H4.94914L0 40.4777L17.025 34.0828C17.1797 34.4984 17.3571 34.9139 17.5571 35.3294C19.2295 38.7491 21.9577 40.8412 23.6507 40.0019C25.3437 39.1625 25.3685 35.7054 23.7002 32.2878C23.1157 31.0539 22.3262 29.9297 21.3659 28.9637L44.4969 0L67.6341 28.9699C66.6738 29.9359 65.8843 31.0601 65.2998 32.294C63.6315 35.7117 63.6501 39.1625 65.3493 40.0081C67.0485 40.8537 69.7705 38.7616 71.4429 35.3356C71.6491 34.9201 71.8203 34.5046 71.975 34.0891L89 40.4777Z" fill="#16122A"/>
</svg>
