<svg width="50" height="41" viewBox="0 0 50 41" fill="none" xmlns="http://www.w3.org/2000/svg">
<path d="M49.9021 4.84043C48.0303 5.66458 46.0473 6.20859 44.0169 6.45495C46.1546 5.17011 47.7551 3.15518 48.523 0.78227C46.5418 1.93847 44.3461 2.7801 42.0087 3.24883C40.4666 1.5998 38.4231 0.506076 36.1957 0.137508C33.9682 -0.23106 31.6814 0.146151 29.6903 1.21057C27.6992 2.27498 26.1153 3.96703 25.1845 6.02398C24.2537 8.08092 24.0281 10.3876 24.5427 12.5859C16.0222 12.1839 8.47048 8.09238 3.41652 1.90722C2.49738 3.46927 2.01797 5.25089 2.02908 7.06326C2.02908 10.6256 3.84151 13.7567 6.58723 15.5962C4.95991 15.5444 3.36855 15.1045 1.94575 14.313V14.44C1.94483 16.8074 2.76294 19.1022 4.26129 20.9351C5.75964 22.768 7.84595 24.026 10.1662 24.4959C8.66276 24.8987 7.08807 24.9592 5.5581 24.6729C6.21693 26.7102 7.49516 28.4911 9.21451 29.7671C10.9339 31.0432 13.0086 31.7509 15.1494 31.7914C11.5235 34.6369 7.04651 36.1813 2.4374 36.1766C1.62493 36.1766 0.814549 36.1287 0 36.0371C4.6992 39.0459 10.1631 40.6431 15.7431 40.6389C34.6048 40.6389 44.9065 25.0229 44.9065 11.5027C44.9065 11.0673 44.9065 10.6277 44.8752 10.1902C46.8876 8.74204 48.6234 6.94411 50 4.8821L49.9021 4.84043Z" fill="#16122A"/>
</svg>
