<svg width="50" height="50" viewBox="0 0 50 50" fill="none" xmlns="http://www.w3.org/2000/svg">
<path d="M49.9979 25.001C49.9979 11.1921 38.8058 0 24.999 0C11.1921 0 0 11.1921 0 25.001C0 37.4766 9.14205 47.8187 21.0925 49.6937V32.2263H14.7464V24.999H21.0925V19.4925C21.0925 13.2256 24.826 9.76499 30.5346 9.76499C33.2701 9.76499 36.1307 10.2525 36.1307 10.2525V16.4049H32.9805C29.8762 16.4049 28.9075 18.332 28.9075 20.3092V25.001H35.8411L34.7327 32.2284H28.9075V49.6958C40.858 47.8207 50 37.4786 50 25.001H49.9979Z" fill="#16122A"/>
</svg>
