<svg width="44" height="36" viewBox="0 0 44 36" fill="none" xmlns="http://www.w3.org/2000/svg">
<path d="M43.0053 4.22633C41.6046 4.82252 40.1327 5.23861 38.6253 5.46448C39.3353 5.34561 40.3653 4.08765 40.7853 3.57258C41.4313 2.79596 41.9233 1.90535 42.2353 0.947699C42.2353 0.878362 42.2953 0.779324 42.2353 0.729799C42.2004 0.709803 42.1607 0.699268 42.1203 0.699268C42.0799 0.699268 42.0403 0.709803 42.0053 0.729799C40.3647 1.60022 38.6214 2.26565 36.8153 2.71084C36.7529 2.73089 36.6861 2.73316 36.6224 2.71739C36.5588 2.70163 36.5009 2.66847 36.4553 2.62168C36.3183 2.45465 36.1678 2.29895 36.0053 2.15613C35.2525 1.51823 34.4018 1.00331 33.4853 0.630741C32.2637 0.146322 30.9487 -0.0634261 29.6353 0.0166241C28.3589 0.090454 27.1123 0.427848 25.9753 1.00714C24.8386 1.59626 23.8349 2.40847 23.0253 3.39428C22.1846 4.41776 21.5804 5.61125 21.2553 6.89081C20.9806 8.10455 20.95 9.36001 21.1653 10.5855C21.1653 10.7935 21.1653 10.8232 20.9853 10.7935C13.8553 9.7435 7.98532 7.21768 3.15532 1.79955C2.94532 1.57173 2.83531 1.57173 2.66531 1.79955C0.565312 4.91968 1.58532 9.9218 4.20532 12.3882C4.55532 12.7151 4.91532 13.0419 5.29532 13.3787C4.09391 13.2765 2.92479 12.9399 1.85531 12.3882C1.64531 12.2495 1.54531 12.3288 1.52531 12.5665C1.51258 12.8978 1.53267 13.2296 1.58531 13.557C1.79435 15.1465 2.42571 16.6526 3.41487 17.9213C4.40403 19.1899 5.71553 20.1757 7.21531 20.7779C7.58514 20.9335 7.97064 21.0498 8.36531 21.1246C7.25216 21.3446 6.10965 21.378 4.98532 21.2236C4.74532 21.1741 4.64531 21.3029 4.74531 21.5307C6.22531 25.5423 9.43531 26.7309 11.8353 27.4143C12.1553 27.4738 12.4753 27.4738 12.8353 27.5431C12.8353 27.5431 12.8353 27.5431 12.8353 27.6026C12.0353 28.8011 9.27532 29.7025 7.98532 30.1482C5.6305 30.9747 3.12432 31.2921 0.635313 31.0793C0.235313 31.0198 0.155317 31.0198 0.0453167 31.0793C-0.0646833 31.1387 0.0453118 31.2378 0.165312 31.3368C0.665312 31.6637 1.16531 31.9608 1.69531 32.2382C3.25588 33.0703 4.90194 33.7344 6.60531 34.2192C15.4453 36.6361 25.3953 34.8531 32.0353 28.3256C37.2453 23.2046 39.0353 16.1324 39.0353 9.05015C39.0353 8.7728 39.3653 8.62422 39.5653 8.47564C40.8859 7.45818 42.0513 6.25716 43.0253 4.90977C43.1787 4.71476 43.2599 4.47351 43.2553 4.22633C43.1853 4.12727 43.1853 4.12727 43.0053 4.22633Z" fill="#CE8C4F"/>
</svg>
