<svg width="37" height="27" viewBox="0 0 37 27" fill="none" xmlns="http://www.w3.org/2000/svg">
<path d="M36.2 8.81736C36.1842 6.72606 35.3343 4.72576 33.8358 3.25252C32.3372 1.77928 30.3114 0.952578 28.2 0.952637H7.94C5.83418 0.952637 3.81462 1.78126 2.32558 3.25618C0.836538 4.7311 0 6.7315 0 8.81736V18.1877C0 20.2735 0.836538 22.2739 2.32558 23.7489C3.81462 25.2238 5.83418 26.0524 7.94 26.0524H28.25C30.3614 26.0525 32.3872 25.2258 33.8857 23.7525C35.3843 22.2793 36.2342 20.279 36.25 18.1877L36.2 8.81736ZM24.2 14.2058L15.09 18.673C14.73 18.8612 13.52 18.6037 13.52 18.1976V9.01547C13.52 8.60936 14.74 8.35183 15.1 8.55984L23.82 13.2549C24.24 13.4827 24.62 13.9681 24.25 14.2058H24.2Z" fill="#CE8C4F"/>
</svg>
