<svg width="25" height="18" viewBox="0 0 25 18" fill="none" xmlns="http://www.w3.org/2000/svg">
<path d="M24.9942 6.12559C25.0504 4.51731 24.6949 2.92106 23.9608 1.48506C23.4627 0.895838 22.7715 0.498203 22.0075 0.361448C18.8476 0.0777637 15.6746 -0.0385092 12.5021 0.0131275C9.34122 -0.0408528 6.17965 0.071668 3.03083 0.350212C2.40829 0.462255 1.83218 0.751165 1.37279 1.18169C0.350706 2.11429 0.237141 3.70982 0.123576 5.05816C-0.0411922 7.48243 -0.0411922 9.91491 0.123576 12.3392C0.156431 13.0981 0.270636 13.8514 0.46427 14.5864C0.601201 15.1539 0.87824 15.679 1.27058 16.1145C1.73309 16.5679 2.32263 16.8732 2.96269 16.9909C5.41105 17.29 7.87802 17.4139 10.3444 17.3617C14.3192 17.4179 17.8056 17.3617 21.928 17.0471C22.5838 16.9366 23.1899 16.6309 23.6655 16.1707C23.9835 15.856 24.221 15.4708 24.3583 15.0471C24.7644 13.8141 24.9639 12.5236 24.9488 11.2268C24.9942 10.5976 24.9942 6.79976 24.9942 6.12559ZM9.93556 11.901V4.9458L16.6586 8.44024C14.7734 9.47397 12.2864 10.6425 9.93556 11.901Z" fill="#16122A"/>
</svg>
